<svg width="126" height="42" viewBox="0 0 126 42" fill="none" xmlns="http://www.w3.org/2000/svg">
<g id="Home Page - Desktop">
<g id="Container">
<g id="Container_2">
<g id="Logo">
<g id="Frame 3">
<g id="Objects" clip-path="url(#clip0_1090_164036)">
<path id="Vector" d="M18.3267 8.4682C24.4599 5.02852 33.2217 7.84871 37.9003 14.7726C42.5789 21.6964 41.4016 30.0954 35.2718 33.5351C40.4843 30.6122 41.4837 23.4693 37.5067 17.5859C33.5297 11.7025 26.0788 9.3033 20.8696 12.2262C15.6571 15.1525 14.6577 22.2919 18.6313 28.1788C22.6083 34.0621 30.0558 36.4614 35.2684 33.5351C29.1351 36.9782 20.3733 34.1545 15.6947 27.2307C11.0195 20.3103 12.1968 11.9079 18.3267 8.4682Z" fill="#4D4D4D"/>
<path id="Vector_2" d="M22.8856 10.6928C27.9099 7.87265 35.0905 10.1863 38.9203 15.8575C42.7536 21.5287 41.7884 28.4115 36.7641 31.2317C41.0355 28.8359 41.8535 22.9833 38.5952 18.1643C35.3403 13.3453 29.2345 11.3774 24.9665 13.7732C20.6952 16.1689 19.8772 22.0215 23.1355 26.8439C26.3938 31.6663 32.4962 33.6309 36.7675 31.2317C31.7432 34.0518 24.5627 31.7416 20.7328 26.067C16.8996 20.3958 17.8647 13.5096 22.889 10.6928H22.8856Z" fill="#4D4D4D"/>
<path id="Vector_3" d="M29.943 10.4671C35.2685 10.8025 40.1457 15.4299 40.8336 20.8033C41.5181 26.1767 37.7567 30.2598 32.4312 29.9278C36.9593 30.2119 40.156 26.7414 39.5741 22.1723C38.9889 17.6032 34.8476 13.6707 30.3195 13.3866C25.7915 13.1025 22.5914 16.573 23.1766 21.1421C23.7619 25.7112 27.9066 29.6438 32.4312 29.9278C27.1057 29.5924 22.232 24.9651 21.544 19.5917C20.8561 14.2183 24.6175 10.1351 29.9464 10.4671H29.943Z" fill="#4D4D4D"/>
<path id="Vector_4" d="M35.5321 12.6406C39.7452 15.1699 41.7337 20.314 39.978 24.1267C38.2188 27.9395 33.3793 28.9799 29.1661 26.4506C32.7495 28.6 36.8634 27.717 38.3557 24.4758C39.8513 21.2347 38.1572 16.864 34.5772 14.7112C30.9937 12.5619 26.8798 13.4449 25.3876 16.6861C23.8919 19.9272 25.5827 24.2979 29.1661 26.4472C24.9529 23.9179 22.9644 18.7738 24.7236 14.9611C26.4828 11.1484 31.3223 10.1079 35.5355 12.6372L35.5321 12.6406Z" fill="#4D4D4D"/>
</g>
<g id="Lumina">
<path id="Vector_5" d="M107.648 29.4076C106.89 29.4076 106.248 29.265 105.723 28.9797C105.198 28.688 104.799 28.3022 104.527 27.8224C104.261 27.3427 104.128 26.8143 104.128 26.2373C104.128 25.7316 104.212 25.2778 104.381 24.8758C104.549 24.4674 104.809 24.1173 105.159 23.8255C105.509 23.5273 105.963 23.2842 106.52 23.0962C106.942 22.96 107.434 22.8368 107.998 22.7266C108.569 22.6164 109.185 22.5159 109.846 22.4252C110.514 22.3279 111.211 22.2242 111.937 22.114L111.101 22.5905C111.107 21.8644 110.945 21.3295 110.614 20.9859C110.284 20.6423 109.726 20.4705 108.942 20.4705C108.468 20.4705 108.011 20.5807 107.571 20.8011C107.13 21.0215 106.822 21.4008 106.647 21.9389L104.507 21.2679C104.767 20.3797 105.259 19.6666 105.985 19.1284C106.718 18.5903 107.703 18.3213 108.942 18.3213C109.875 18.3213 110.695 18.4736 111.402 18.7784C112.115 19.0831 112.644 19.5823 112.987 20.276C113.175 20.6455 113.289 21.0248 113.328 21.4138C113.367 21.7963 113.386 22.2145 113.386 22.6683V29.1158H111.334V26.8402L111.674 27.2098C111.201 27.9683 110.647 28.5259 110.011 28.8824C109.383 29.2325 108.595 29.4076 107.648 29.4076ZM108.115 27.5404C108.647 27.5404 109.101 27.4464 109.477 27.2584C109.853 27.0704 110.151 26.8402 110.371 26.5679C110.598 26.2956 110.751 26.0396 110.828 25.7997C110.952 25.5014 111.02 25.1611 111.033 24.7786C111.052 24.3896 111.062 24.0751 111.062 23.8353L111.781 24.0492C111.075 24.1594 110.469 24.2567 109.963 24.341C109.457 24.4252 109.023 24.5063 108.66 24.5841C108.297 24.6554 107.976 24.7364 107.697 24.8272C107.425 24.9244 107.194 25.0379 107.006 25.1676C106.818 25.2972 106.673 25.4463 106.569 25.6149C106.472 25.7835 106.423 25.9812 106.423 26.2081C106.423 26.4674 106.488 26.6976 106.617 26.8986C106.747 27.0931 106.935 27.2487 107.182 27.3654C107.434 27.4821 107.746 27.5404 108.115 27.5404Z" fill="#4D4D4D"/>
<path id="Vector_6" d="M99.8015 29.1158V24.0589C99.8015 23.7282 99.7788 23.3619 99.7334 22.96C99.688 22.558 99.581 22.1723 99.4125 21.8027C99.2504 21.4267 99.004 21.1188 98.6734 20.8789C98.3492 20.639 97.9084 20.5191 97.3508 20.5191C97.0526 20.5191 96.7576 20.5677 96.4659 20.6649C96.1741 20.7622 95.9083 20.9307 95.6684 21.1706C95.435 21.404 95.247 21.7282 95.1044 22.1431C94.9617 22.5515 94.8904 23.0767 94.8904 23.7185L93.4998 23.1253C93.4998 22.2306 93.6716 21.4202 94.0152 20.6941C94.3653 19.968 94.8775 19.391 95.5517 18.9631C96.226 18.5287 97.0558 18.3115 98.0413 18.3115C98.8193 18.3115 99.4611 18.4412 99.9668 18.7005C100.472 18.9598 100.874 19.2905 101.173 19.6924C101.471 20.0944 101.691 20.5223 101.834 20.9761C101.977 21.4299 102.067 21.8611 102.106 22.2695C102.152 22.6715 102.174 22.9989 102.174 23.2517V29.1158H99.8015ZM92.5176 29.1158V18.613H94.6084V21.8708H94.8904V29.1158H92.5176Z" fill="#4D4D4D"/>
<path id="Vector_7" d="M87.2803 17.0183V14.8691H89.624V17.0183H87.2803ZM87.2803 29.116V18.6132H89.624V29.116H87.2803Z" fill="#4D4D4D"/>
<path id="Vector_8" d="M82.2058 29.116V22.7365C82.2058 22.0168 82.0275 21.456 81.6709 21.0541C81.3143 20.6456 80.8313 20.4414 80.2219 20.4414C79.8459 20.4414 79.5088 20.5289 79.2105 20.704C78.9123 20.8726 78.6757 21.1254 78.5006 21.4625C78.3256 21.7932 78.2381 22.1886 78.2381 22.649L77.1975 22.0363C77.191 21.3102 77.3531 20.6716 77.6837 20.1205C78.0209 19.5629 78.4747 19.1286 79.0452 18.8174C79.6157 18.5062 80.2511 18.3506 80.9513 18.3506C82.1118 18.3506 83 18.7007 83.6159 19.4009C84.2383 20.0946 84.5495 21.0087 84.5495 22.1433V29.116H82.2058ZM69.5732 29.116V18.6132H71.6446V21.871H71.9364V29.116H69.5732ZM75.9041 29.116V22.7657C75.9041 22.0331 75.7258 21.4625 75.3692 21.0541C75.0127 20.6456 74.5264 20.4414 73.9105 20.4414C73.3141 20.4414 72.8343 20.6456 72.4712 21.0541C72.1147 21.4625 71.9364 21.9942 71.9364 22.649L70.8861 21.9488C70.8861 21.268 71.0547 20.6554 71.3918 20.1108C71.7289 19.5662 72.1827 19.1383 72.7533 18.8271C73.3303 18.5094 73.9753 18.3506 74.6885 18.3506C75.473 18.3506 76.1278 18.5191 76.6529 18.8563C77.1845 19.1869 77.58 19.6407 77.8393 20.2178C78.1052 20.7883 78.2381 21.4334 78.2381 22.153V29.116H75.9041Z" fill="#4D4D4D"/>
<path id="Vector_9" d="M61.3557 29.4176C60.5777 29.4176 59.9359 29.2879 59.4302 29.0286C58.9245 28.7692 58.5225 28.4386 58.2243 28.0366C57.9261 27.6347 57.7057 27.2068 57.563 26.753C57.4204 26.2991 57.3264 25.8712 57.281 25.4693C57.2421 25.0608 57.2227 24.7302 57.2227 24.4773V18.6133H59.5955V23.6702C59.5955 23.9943 59.6182 24.3607 59.6636 24.7691C59.709 25.1711 59.8127 25.56 59.9748 25.9361C60.1433 26.3056 60.3897 26.6103 60.7139 26.8502C61.0445 27.0901 61.4886 27.21 62.0462 27.21C62.3444 27.21 62.6394 27.1614 62.9311 27.0642C63.2229 26.9669 63.4854 26.8016 63.7188 26.5682C63.9587 26.3283 64.15 26.0009 64.2926 25.586C64.4352 25.1711 64.5065 24.6459 64.5065 24.0106L65.8972 24.6038C65.8972 25.4985 65.7222 26.3089 65.3721 27.035C65.0284 27.7611 64.5195 28.3413 63.8453 28.7757C63.171 29.2036 62.3412 29.4176 61.3557 29.4176ZM64.7886 29.1161V25.8583H64.5065V18.6133H66.86V29.1161H64.7886Z" fill="#4D4D4D"/>
<path id="Vector_10" d="M47.2412 29.116V15.1123H49.5849V26.9182H55.7699V29.116H47.2412Z" fill="#4D4D4D"/>
</g>
</g>
</g>
</g>
</g>
</g>
<defs>
<clipPath id="clip0_1090_164036">
<rect width="28.4347" height="28" fill="white" transform="translate(12.8335 7)"/>
</clipPath>
</defs>
</svg>
